<mxfile host="app.diagrams.net" modified="2023-07-21T08:48:47.737Z" agent="Mozilla/5.0 (Windows NT 10.0; Win64; x64) AppleWebKit/537.36 (KHTML, like Gecko) Chrome/115.0.0.0 Safari/537.36" etag="UwjSUeJeJtrrSLVXJcG7" version="21.6.5" type="github">
  <diagram name="페이지-1" id="8ceYlJeKnEnoc0hkUmHm">
    <mxGraphModel dx="1434" dy="790" grid="1" gridSize="10" guides="1" tooltips="1" connect="1" arrows="1" fold="1" page="1" pageScale="1" pageWidth="827" pageHeight="1169" math="0" shadow="0">
      <root>
        <mxCell id="0" />
        <mxCell id="1" parent="0" />
        <mxCell id="tmScAWc0-smr_KVI17uv-12" value="&lt;font style=&quot;vertical-align: inherit;&quot;&gt;&lt;font style=&quot;vertical-align: inherit;&quot;&gt;고객&lt;/font&gt;&lt;/font&gt;" style="whiteSpace=wrap;html=1;align=center;" vertex="1" parent="1">
          <mxGeometry x="310" y="390" width="90" height="40" as="geometry" />
        </mxCell>
        <mxCell id="tmScAWc0-smr_KVI17uv-17" style="edgeStyle=orthogonalEdgeStyle;rounded=0;orthogonalLoop=1;jettySize=auto;html=1;exitX=1;exitY=0.5;exitDx=0;exitDy=0;entryX=0;entryY=0.5;entryDx=0;entryDy=0;" edge="1" parent="1" source="tmScAWc0-smr_KVI17uv-13" target="tmScAWc0-smr_KVI17uv-12">
          <mxGeometry relative="1" as="geometry" />
        </mxCell>
        <mxCell id="tmScAWc0-smr_KVI17uv-13" value="&lt;font style=&quot;vertical-align: inherit;&quot;&gt;&lt;font style=&quot;vertical-align: inherit;&quot;&gt;고객명&lt;/font&gt;&lt;/font&gt;" style="ellipse;whiteSpace=wrap;html=1;align=center;" vertex="1" parent="1">
          <mxGeometry x="160" y="220" width="100" height="40" as="geometry" />
        </mxCell>
        <mxCell id="tmScAWc0-smr_KVI17uv-40" style="edgeStyle=orthogonalEdgeStyle;rounded=0;orthogonalLoop=1;jettySize=auto;html=1;exitX=0.5;exitY=1;exitDx=0;exitDy=0;" edge="1" parent="1" source="tmScAWc0-smr_KVI17uv-18">
          <mxGeometry relative="1" as="geometry">
            <mxPoint x="364" y="380" as="targetPoint" />
          </mxGeometry>
        </mxCell>
        <mxCell id="tmScAWc0-smr_KVI17uv-18" value="&lt;font style=&quot;vertical-align: inherit;&quot;&gt;&lt;font style=&quot;vertical-align: inherit;&quot;&gt;고객명&lt;/font&gt;&lt;/font&gt;" style="ellipse;whiteSpace=wrap;html=1;align=center;" vertex="1" parent="1">
          <mxGeometry x="314" y="220" width="100" height="40" as="geometry" />
        </mxCell>
        <mxCell id="tmScAWc0-smr_KVI17uv-24" style="edgeStyle=orthogonalEdgeStyle;rounded=0;orthogonalLoop=1;jettySize=auto;html=1;exitX=0.5;exitY=1;exitDx=0;exitDy=0;entryX=1;entryY=0.5;entryDx=0;entryDy=0;" edge="1" parent="1" source="tmScAWc0-smr_KVI17uv-19" target="tmScAWc0-smr_KVI17uv-12">
          <mxGeometry relative="1" as="geometry" />
        </mxCell>
        <mxCell id="tmScAWc0-smr_KVI17uv-19" value="&lt;font style=&quot;vertical-align: inherit;&quot;&gt;&lt;font style=&quot;vertical-align: inherit;&quot;&gt;이메일&lt;/font&gt;&lt;/font&gt;" style="ellipse;whiteSpace=wrap;html=1;align=center;" vertex="1" parent="1">
          <mxGeometry x="450" y="220" width="100" height="40" as="geometry" />
        </mxCell>
        <mxCell id="tmScAWc0-smr_KVI17uv-34" style="edgeStyle=orthogonalEdgeStyle;rounded=0;orthogonalLoop=1;jettySize=auto;html=1;exitX=1;exitY=0.5;exitDx=0;exitDy=0;" edge="1" parent="1" source="tmScAWc0-smr_KVI17uv-31" target="tmScAWc0-smr_KVI17uv-12">
          <mxGeometry relative="1" as="geometry" />
        </mxCell>
        <mxCell id="tmScAWc0-smr_KVI17uv-31" value="&lt;font style=&quot;vertical-align: inherit;&quot;&gt;&lt;font style=&quot;vertical-align: inherit;&quot;&gt;ㅈ주소&lt;/font&gt;&lt;/font&gt;" style="ellipse;whiteSpace=wrap;html=1;align=center;" vertex="1" parent="1">
          <mxGeometry x="110" y="390" width="100" height="40" as="geometry" />
        </mxCell>
        <mxCell id="tmScAWc0-smr_KVI17uv-35" style="edgeStyle=orthogonalEdgeStyle;rounded=0;orthogonalLoop=1;jettySize=auto;html=1;exitX=0.5;exitY=0;exitDx=0;exitDy=0;entryX=0;entryY=1;entryDx=0;entryDy=0;" edge="1" parent="1" source="tmScAWc0-smr_KVI17uv-32" target="tmScAWc0-smr_KVI17uv-12">
          <mxGeometry relative="1" as="geometry" />
        </mxCell>
        <mxCell id="tmScAWc0-smr_KVI17uv-32" value="&lt;font style=&quot;vertical-align: inherit;&quot;&gt;&lt;font style=&quot;vertical-align: inherit;&quot;&gt;ㅈ지역&lt;/font&gt;&lt;/font&gt;" style="ellipse;whiteSpace=wrap;html=1;align=center;" vertex="1" parent="1">
          <mxGeometry x="160" y="490" width="100" height="40" as="geometry" />
        </mxCell>
        <mxCell id="tmScAWc0-smr_KVI17uv-39" style="edgeStyle=orthogonalEdgeStyle;rounded=0;orthogonalLoop=1;jettySize=auto;html=1;exitX=0.5;exitY=0;exitDx=0;exitDy=0;" edge="1" parent="1" source="tmScAWc0-smr_KVI17uv-33">
          <mxGeometry relative="1" as="geometry">
            <mxPoint x="364" y="440" as="targetPoint" />
          </mxGeometry>
        </mxCell>
        <mxCell id="tmScAWc0-smr_KVI17uv-33" value="&lt;font style=&quot;vertical-align: inherit;&quot;&gt;&lt;font style=&quot;vertical-align: inherit;&quot;&gt;ㄱ가입일&lt;/font&gt;&lt;/font&gt;" style="ellipse;whiteSpace=wrap;html=1;align=center;" vertex="1" parent="1">
          <mxGeometry x="314" y="510" width="100" height="40" as="geometry" />
        </mxCell>
        <mxCell id="tmScAWc0-smr_KVI17uv-42" style="edgeStyle=orthogonalEdgeStyle;rounded=0;orthogonalLoop=1;jettySize=auto;html=1;exitX=0.5;exitY=0;exitDx=0;exitDy=0;" edge="1" parent="1" source="tmScAWc0-smr_KVI17uv-41">
          <mxGeometry relative="1" as="geometry">
            <mxPoint x="400" y="440" as="targetPoint" />
          </mxGeometry>
        </mxCell>
        <mxCell id="tmScAWc0-smr_KVI17uv-41" value="&lt;font style=&quot;vertical-align: inherit;&quot;&gt;&lt;font style=&quot;vertical-align: inherit;&quot;&gt;고객코드&lt;/font&gt;&lt;/font&gt;" style="ellipse;whiteSpace=wrap;html=1;align=center;" vertex="1" parent="1">
          <mxGeometry x="500" y="490" width="100" height="40" as="geometry" />
        </mxCell>
      </root>
    </mxGraphModel>
  </diagram>
</mxfile>
